<svg width="14.000000" height="9.625000" viewBox="0 0 14 9.625" fill="none" xmlns="http://www.w3.org/2000/svg" xmlns:xlink="http://www.w3.org/1999/xlink">
	<desc>
			Created with Pixso.
	</desc>
	<defs/>
	<path id="Vector" d="M1.14 9.62L13.92 9.62C13.96 9.62 14 9.58 14 9.54L14 9.53L13.4 9.04L13.13 8.82L8.94 5.35L8.77 5.22L8.61 5.36L7.71 6.11C7.52 6.27 7.28 6.36 7.01 6.36C6.75 6.36 6.5 6.28 6.31 6.12L5.39 5.33L5.22 5.19L5.06 5.33L0.85 8.82L0.59 9.04L0 9.53L0 9.54C0 9.58 0.03 9.62 0.07 9.62L1.14 9.62ZM2.1 8.82L11.88 8.82L8.78 6.26L8.23 6.72Q8.12 6.82 8 6.89Q7.84 6.99 7.66 7.05Q7.54 7.1 7.41 7.12Q7.22 7.16 7.01 7.16Q6.8 7.16 6.6 7.12Q6.49 7.09 6.37 7.05Q6.17 6.98 5.99 6.87Q5.89 6.81 5.8 6.73L5.22 6.23L2.1 8.82ZM5.06 4.28L6.68 5.66C6.77 5.73 6.89 5.77 7.01 5.77L7.02 5.77C7.12 5.77 7.23 5.74 7.31 5.68L7.33 5.66C7.34 5.66 7.34 5.66 7.35 5.65L7.61 5.43L8.15 4.97L8.93 4.31L13.07 0.8L13.37 0.54L13.98 0.03C13.98 0.02 13.98 0.02 13.97 0.02C13.96 0 13.94 0 13.92 0L0.07 0C0.05 0 0.04 0 0.02 0.01L5.06 4.28ZM7.01 4.89L7.1 4.82L11.84 0.8L2.18 0.8L7.01 4.89ZM6.87 5.01Q6.86 5.01 6.86 5.02L6.87 5.01ZM0 1.81L0 8.76L0.8 8.1L4.14 5.32L4.6 4.94L4.77 4.8L4.15 4.28L0.8 1.44L0 0.76L0 1.81ZM0.8 2.49L0.8 7.06L3.52 4.8L0.8 2.49ZM13.2 1.47L9.85 4.3L9.39 4.69L9.23 4.83L9.39 4.97L9.86 5.35L13.2 8.11L14 8.77L14 0.79L13.2 1.47ZM10.48 4.82L13.2 2.51L13.2 7.07L10.48 4.82Z" fill="#FFFFFF" fill-opacity="1.000000" fill-rule="evenodd"/>
</svg>
