<svg width="150.208008" height="24.121582" viewBox="0 0 150.208 24.1216" fill="none" xmlns="http://www.w3.org/2000/svg" xmlns:xlink="http://www.w3.org/1999/xlink">
	<desc>
			Created with Pixso.
	</desc>
	<defs/>
	<path id="GOODBAY" d="M15.83 23.23Q18.35 22.34 19.65 20.89L19.65 11.26L10.07 11.26L10.07 15.14L14 15.14L14 18.78Q12.92 19.77 10.71 19.77Q8.88 19.77 7.75 18.88Q7.28 18.52 6.93 18Q5.73 16.24 5.73 12.72L5.73 11.31Q5.75 7.95 6.91 6.15Q7.5 5.23 8.34 4.78Q9.15 4.35 10.19 4.35Q11.97 4.35 12.93 5.18Q13.9 6.02 14.19 7.99L19.64 7.99Q19.28 4.48 17.35 2.5Q17.1 2.24 16.81 2Q14.38 0 10 0Q7.38 0 5.31 1.06Q5.01 1.21 4.72 1.39Q4.05 1.8 3.48 2.31Q2.08 3.54 1.22 5.37Q0 7.95 0 11.42L0.01 13.45Q0.19 18.11 2.57 20.87Q2.76 21.09 2.96 21.3Q3.65 22 4.45 22.53Q6.87 24.12 10.32 24.12Q13.32 24.12 15.83 23.23ZM41.54 18.62Q42.81 15.98 42.81 12.55L42.81 11.47Q42.79 8.08 41.49 5.47Q40.57 3.6 39.12 2.35Q38.53 1.84 37.86 1.43Q37.38 1.13 36.86 0.9Q34.9 0.01 32.54 0.01Q30.16 0.01 28.18 0.91Q27.66 1.15 27.17 1.45Q26.4 1.91 25.74 2.51Q24.4 3.74 23.54 5.51Q22.28 8.15 22.28 11.6L22.28 12.92Q22.34 16.24 23.64 18.8Q24.55 20.58 25.95 21.79Q26.56 22.32 27.26 22.74Q27.58 22.93 27.92 23.1Q30 24.12 32.58 24.12Q34.96 24.12 36.93 23.21Q37.44 22.98 37.92 22.69Q38.61 22.27 39.21 21.74Q40.64 20.48 41.54 18.62ZM64.32 18.62Q65.59 15.98 65.59 12.55L65.59 11.47Q65.58 8.08 64.28 5.47Q63.36 3.6 61.9 2.35Q61.32 1.84 60.65 1.43Q60.16 1.13 59.65 0.9Q57.69 0.01 55.33 0.01Q52.94 0.01 50.96 0.91Q50.45 1.15 49.95 1.45Q49.18 1.91 48.53 2.51Q47.18 3.74 46.33 5.51Q45.06 8.15 45.06 11.6L45.06 12.92Q45.13 16.24 46.43 18.8Q47.33 20.58 48.73 21.79Q49.34 22.32 50.04 22.74Q50.37 22.93 50.7 23.1Q52.78 24.12 55.36 24.12Q57.74 24.12 59.71 23.21Q60.22 22.98 60.7 22.69Q61.4 22.27 61.99 21.74Q63.42 20.48 64.32 18.62ZM68.51 0.33L68.51 23.79L76.23 23.79Q78.44 23.78 80.36 23.01Q81.07 22.73 81.75 22.34Q82.89 21.67 83.8 20.76Q84.85 19.71 85.58 18.34Q85.67 18.18 85.75 18.01Q86.94 15.58 86.94 12.56L86.94 11.48Q86.93 8.75 85.9 6.47Q85.73 6.09 85.53 5.72Q84.72 4.23 83.55 3.13Q82.7 2.34 81.66 1.74Q81.21 1.49 80.74 1.28Q78.62 0.33 76.07 0.33L68.51 0.33ZM89.84 0.33L89.84 23.79L99.37 23.79Q103.65 23.76 105.84 22.03Q106.34 21.63 106.73 21.13Q108.02 19.5 108.02 16.85Q108.02 15.24 107.31 14.05Q107.19 13.83 107.04 13.63Q106.85 13.38 106.64 13.16Q105.71 12.22 104.22 11.82Q105.53 11.33 106.32 10.4Q106.52 10.17 106.68 9.92Q106.7 9.9 106.71 9.88Q107.52 8.6 107.52 6.81Q107.52 4.9 106.65 3.54Q106.09 2.65 105.16 1.99Q102.8 0.33 98.27 0.33L89.84 0.33ZM116.7 19.41L124.45 19.41L125.82 23.79L131.9 23.79L123.23 0.33L117.91 0.33L109.31 23.79L115.35 23.79L116.7 19.41ZM144.1 0.33L139.78 10.52L135.44 0.33L129.37 0.33L136.91 15.37L136.91 23.79L142.65 23.79L142.65 15.37L150.2 0.33L144.1 0.33ZM35.89 6.26Q37.06 8.07 37.06 11.56L37.06 12.64Q37.04 16.06 35.88 17.88Q35.29 18.81 34.45 19.26Q33.63 19.7 32.58 19.7Q31.36 19.7 30.47 19.17Q29.71 18.71 29.18 17.85Q28.03 16 28.03 12.55L28.05 10.82Q28.22 6.36 30.35 5.02Q31.27 4.44 32.54 4.44Q33.65 4.44 34.5 4.91Q35.31 5.37 35.89 6.26ZM58.67 6.26Q59.84 8.07 59.84 11.56L59.84 12.64Q59.82 16.06 58.66 17.88Q58.07 18.81 57.23 19.26Q56.41 19.7 55.36 19.7Q54.15 19.7 53.26 19.17Q52.49 18.71 51.96 17.85Q50.82 16 50.82 12.55L50.83 10.82Q51 6.36 53.13 5.02Q54.05 4.44 55.33 4.44Q56.44 4.44 57.28 4.91Q58.1 5.37 58.67 6.26ZM74.16 19.44L74.16 4.7L76.07 4.7Q77.76 4.7 78.9 5.49Q79.45 5.87 79.87 6.42Q81.17 8.15 81.17 11.55L81.17 12.56Q81.17 15.98 79.87 17.71Q79.4 18.33 78.79 18.73Q77.69 19.44 76.13 19.44L74.16 19.44ZM98.45 10.11L95.5 10.11L95.5 4.7L98.27 4.7Q100.17 4.7 101.03 5.35Q101.14 5.44 101.24 5.54Q101.88 6.2 101.88 7.49Q101.88 8.51 101.38 9.14Q101.25 9.3 101.09 9.44Q100.3 10.1 98.45 10.11ZM123.1 15.04L118.06 15.04L120.57 6.91L123.1 15.04ZM95.5 19.44L95.5 13.82L99.46 13.82Q100.91 13.83 101.64 14.56Q102.38 15.29 102.38 16.77Q102.38 17.69 101.95 18.32Q101.78 18.55 101.56 18.74Q100.74 19.44 99.2 19.44L95.5 19.44Z" fill="#FFFFFF" fill-opacity="1.000000" fill-rule="evenodd"/>
</svg>
