<svg width="17.207031" height="8.000000" viewBox="0 0 17.207 8" fill="none" xmlns="http://www.w3.org/2000/svg" xmlns:xlink="http://www.w3.org/1999/xlink">
	<desc>
			Created with Pixso.
	</desc>
	<defs/>
	<path id="Vector (Stroke)" d="M0 4C0 3.72 0.22 3.5 0.5 3.5L16.5 3.5C16.77 3.5 17 3.72 17 4C17 4.27 16.77 4.5 16.5 4.5L0.5 4.5C0.22 4.5 0 4.27 0 4Z" fill="#FFFFFF" fill-opacity="1.000000" fill-rule="evenodd"/>
	<path id="Vector 2 (Stroke)" d="M12.64 0.14C12.84 -0.05 13.15 -0.05 13.35 0.14L17.2 4L13.35 7.85C13.15 8.04 12.84 8.04 12.64 7.85C12.45 7.65 12.45 7.34 12.64 7.14L15.79 4L12.64 0.85C12.45 0.65 12.45 0.34 12.64 0.14Z" fill="#FFFFFF" fill-opacity="1.000000" fill-rule="evenodd"/>
</svg>
