<svg width="14.000000" height="13.990845" viewBox="0 0 14 13.9908" fill="none" xmlns="http://www.w3.org/2000/svg" xmlns:xlink="http://www.w3.org/1999/xlink">
	<desc>
			Created with Pixso.
	</desc>
	<defs/>
	<path id="Vector" d="M11.81 13.59L13.78 11.63C13.95 11.46 14.02 11.26 13.99 11.04C13.95 10.84 13.83 10.68 13.62 10.55L10.76 8.86L10.74 8.86C10.64 8.8 10.51 8.77 10.34 8.77C10.11 8.77 9.9 8.85 9.72 9.01L8.88 9.87C8.86 9.89 8.82 9.9 8.78 9.92C8.73 9.93 8.7 9.94 8.68 9.94L8.5 9.9C8.37 9.88 8.2 9.81 7.96 9.69C7.73 9.57 7.44 9.38 7.1 9.13C6.75 8.88 6.36 8.53 5.91 8.07C5.46 7.63 5.11 7.23 4.86 6.89Q4.49 6.38 4.31 6.03C4.17 5.76 4.08 5.52 4.04 5.32C4.04 5.29 4.05 5.25 4.07 5.2Q4.09 5.14 4.12 5.11L4.84 4.38C4.97 4.25 5.06 4.1 5.1 3.91C5.14 3.72 5.11 3.55 5.02 3.39L3.44 0.38C3.37 0.27 3.28 0.18 3.18 0.11C3.09 0.03 2.97 0 2.84 0Q2.75 0 2.67 0.02L2.67 0.02Q2.51 0.07 2.37 0.2L0.4 2.17Q0.25 2.31 0.15 2.52Q0.04 2.74 0.01 2.94Q0.01 2.97 0 3.24Q-0.02 3.51 0.06 3.97Q0.13 4.44 0.34 5.09C0.48 5.52 0.68 6 0.96 6.52C1.24 7.05 1.6 7.63 2.06 8.25C2.51 8.87 3.09 9.52 3.78 10.21C4.65 11.09 5.47 11.78 6.24 12.28C7.01 12.79 7.7 13.16 8.3 13.42C8.91 13.67 9.43 13.83 9.85 13.89C10.27 13.95 10.57 13.99 10.76 13.99C10.84 13.99 10.9 13.98 10.95 13.98C11 13.97 11.03 13.97 11.04 13.97C11.18 13.95 11.32 13.91 11.46 13.84C11.6 13.77 11.72 13.68 11.81 13.59ZM10.92 12.98Q10.97 12.97 11.03 12.94Q11.05 12.92 11.07 12.91L11.07 12.91L11.09 12.9L12.78 11.21L10.48 9.86L10.47 9.86L10.35 9.79L9.58 10.57Q9.57 10.58 9.56 10.59Q9.37 10.77 9.09 10.87Q8.87 10.94 8.68 10.94L8.58 10.94L8.3 10.88Q7.98 10.82 7.51 10.58Q7.09 10.36 6.51 9.94Q5.92 9.51 5.21 8.79Q4.47 8.06 4.05 7.48Q3.63 6.9 3.42 6.49Q3.15 5.96 3.06 5.5L3.04 5.41L3.04 5.32Q3.04 5.11 3.12 4.89Q3.21 4.61 3.39 4.42Q3.4 4.41 3.41 4.4L4.07 3.74L2.75 1.23L1.09 2.9L1.07 2.91L1.07 2.91Q1.06 2.93 1.05 2.96Q1.02 3.01 1.01 3.06Q1 3.14 1 3.3Q0.99 3.46 1.04 3.82Q1.11 4.21 1.29 4.78Q1.47 5.34 1.85 6.06Q2.23 6.79 2.87 7.66Q3.5 8.53 4.49 9.5Q5.72 10.75 6.78 11.44Q7.86 12.15 8.69 12.49Q9.49 12.82 10 12.9Q10.55 12.99 10.76 12.99Q10.83 12.99 10.85 12.98Q10.89 12.98 10.92 12.98ZM13.1 11.4L13.1 11.4L13.1 11.4L13.1 11.4L13.1 11.4Z" fill="#FFFFFF" fill-opacity="1.000000" fill-rule="evenodd"/>
</svg>
